<svg width="281.736" height="79.167" viewBox="0 0 281.736 79.167" xmlns="http://www.w3.org/2000/svg"><g id="svgGroup" stroke-linecap="round" fill-rule="evenodd" font-size="9pt" stroke="#000" stroke-width="1mm" fill="#000" style="stroke:#000;stroke-width:1mm;fill:#000"><path d="M 239.236 12.153 L 236.944 21.736 A 23.976 23.976 0 0 0 228.368 13.507 A 23.488 23.488 0 0 0 216.471 10.417 A 29.019 29.019 0 0 0 216.458 10.417 A 24.067 24.067 0 0 0 207.645 12.009 A 22.667 22.667 0 0 0 204.063 13.785 Q 198.542 17.153 195.278 22.813 A 24.629 24.629 0 0 0 192.021 34.768 A 29.174 29.174 0 0 0 192.014 35.417 A 24.828 24.828 0 0 0 195.278 47.986 Q 198.542 53.681 204.063 57.049 A 23.189 23.189 0 0 0 215.817 60.409 A 27.687 27.687 0 0 0 216.458 60.417 A 23.962 23.962 0 0 0 225.028 58.906 A 22.479 22.479 0 0 0 228.403 57.292 A 24.571 24.571 0 0 0 236.944 49.097 L 239.236 58.681 A 34.387 34.387 0 0 1 228.958 65.417 A 31.394 31.394 0 0 1 216.458 67.917 A 31.938 31.938 0 0 1 203.785 65.382 A 33.076 33.076 0 0 1 193.368 58.403 Q 188.889 53.958 186.354 48.056 A 31.689 31.689 0 0 1 183.819 35.417 Q 183.819 28.681 186.354 22.778 A 32.484 32.484 0 0 1 193.368 12.431 Q 197.847 7.986 203.785 5.451 A 31.938 31.938 0 0 1 216.458 2.917 A 31.777 31.777 0 0 1 228.958 5.382 A 33.204 33.204 0 0 1 239.236 12.153 Z M 281.736 66.667 L 250.903 66.667 L 250.903 4.167 L 281.736 4.167 L 281.736 11.25 L 258.819 11.25 L 258.819 24.583 L 276.875 24.583 L 276.875 31.667 L 258.819 31.667 L 258.819 59.583 L 281.736 59.583 L 281.736 66.667 Z M 0 59.861 L 2.292 50.278 A 19.851 19.851 0 0 0 5.884 55.264 A 25.006 25.006 0 0 0 8.125 57.292 Q 12.014 60.417 17.431 60.417 A 12.781 12.781 0 0 0 21.419 59.819 A 10.714 10.714 0 0 0 25.59 57.292 A 10.267 10.267 0 0 0 28.816 49.868 A 12.82 12.82 0 0 0 28.819 49.583 Q 28.819 46.329 27.297 44.2 A 7.236 7.236 0 0 0 27.222 44.097 A 14.274 14.274 0 0 0 25.207 41.884 A 11.904 11.904 0 0 0 23.611 40.694 A 62.604 62.604 0 0 0 22.656 40.113 Q 21.302 39.306 20.417 38.889 L 12.778 35 A 42.183 42.183 0 0 1 11.434 34.241 Q 10.053 33.431 8.299 32.292 A 15.207 15.207 0 0 1 4.969 29.322 A 19.114 19.114 0 0 1 3.611 27.5 A 11.445 11.445 0 0 1 2.101 23.993 Q 1.597 22.014 1.597 19.583 A 17.395 17.395 0 0 1 2.289 14.6 A 15.086 15.086 0 0 1 3.785 11.181 A 15.287 15.287 0 0 1 9.896 5.417 A 17.818 17.818 0 0 1 16.123 3.499 A 22.526 22.526 0 0 1 18.889 3.333 A 23.996 23.996 0 0 1 23.456 3.749 A 18.377 18.377 0 0 1 27.708 5.104 A 36.742 36.742 0 0 1 30.238 6.39 Q 31.399 7.042 32.343 7.707 A 16.54 16.54 0 0 1 33.681 8.75 L 31.389 18.333 A 16.573 16.573 0 0 0 29.155 15.418 Q 27.996 14.195 26.505 13.042 A 27.955 27.955 0 0 0 26.25 12.847 A 12.463 12.463 0 0 0 18.542 10.278 A 11.423 11.423 0 0 0 15.651 10.624 A 8.236 8.236 0 0 0 11.875 12.743 A 8.181 8.181 0 0 0 9.376 18.693 A 10.347 10.347 0 0 0 9.375 18.819 A 9.867 9.867 0 0 0 9.571 20.841 Q 9.848 22.166 10.517 23.193 A 6.114 6.114 0 0 0 10.66 23.403 A 11.674 11.674 0 0 0 12.203 25.182 A 9.536 9.536 0 0 0 13.576 26.25 A 69.916 69.916 0 0 0 14.355 26.74 Q 15.469 27.431 16.25 27.847 L 24.028 31.736 A 37.488 37.488 0 0 1 25.069 32.279 Q 25.607 32.57 26.223 32.92 A 92.865 92.865 0 0 1 27.535 33.681 A 19.649 19.649 0 0 1 29.907 35.339 A 25.522 25.522 0 0 1 31.736 36.979 A 16.457 16.457 0 0 1 34.446 40.517 A 19.796 19.796 0 0 1 35.208 41.979 A 13.841 13.841 0 0 1 36.25 45.234 Q 36.543 46.736 36.589 48.454 A 24.162 24.162 0 0 1 36.597 49.097 A 19.228 19.228 0 0 1 35.761 54.849 A 16.873 16.873 0 0 1 34.063 58.611 Q 31.528 62.778 27.153 65.139 A 19.702 19.702 0 0 1 19.97 67.343 A 24.694 24.694 0 0 1 17.153 67.5 A 23.922 23.922 0 0 1 10.973 66.727 A 20.557 20.557 0 0 1 7.118 65.278 A 25.121 25.121 0 0 1 3.323 62.981 A 18.761 18.761 0 0 1 0 59.861 Z M 133.333 66.667 L 125.347 66.667 L 151.806 2.083 L 151.944 2.083 L 178.403 66.667 L 170 66.667 L 162.639 48.125 L 140.764 48.125 L 133.333 66.667 Z M 92.014 79.167 L 84.931 79.167 L 122.847 0 L 129.931 0 L 92.014 79.167 Z M 57.431 66.667 L 49.514 66.667 L 49.514 4.167 L 65 4.167 Q 71.181 4.167 75.451 6.042 A 21.852 21.852 0 0 1 79.314 8.203 A 17.311 17.311 0 0 1 82.361 10.937 A 20.041 20.041 0 0 1 85.612 15.969 A 18.516 18.516 0 0 1 86.215 17.5 A 22.349 22.349 0 0 1 87.306 22.25 A 19.541 19.541 0 0 1 87.431 24.444 A 20.657 20.657 0 0 1 86.821 29.344 A 24.843 24.843 0 0 1 86.25 31.319 A 19.145 19.145 0 0 1 83.106 37.096 A 22.3 22.3 0 0 1 82.431 37.917 A 17.584 17.584 0 0 1 78.249 41.419 A 22.588 22.588 0 0 1 75.486 42.847 Q 71.181 44.722 65 44.722 L 57.431 44.722 L 57.431 66.667 Z M 57.431 11.25 L 57.431 37.639 L 64.583 37.639 Q 70.208 37.639 73.472 35.66 A 13.108 13.108 0 0 0 76.12 33.575 A 10.463 10.463 0 0 0 78.125 30.66 A 14.727 14.727 0 0 0 79.514 24.444 A 14.602 14.602 0 0 0 78.585 19.384 A 17.323 17.323 0 0 0 78.16 18.333 A 10.835 10.835 0 0 0 75.074 14.336 A 14.008 14.008 0 0 0 73.576 13.264 A 11.661 11.661 0 0 0 70.568 11.969 Q 69.139 11.565 67.424 11.388 A 27.715 27.715 0 0 0 64.583 11.25 L 57.431 11.25 Z M 148.333 29.167 L 143.403 41.528 L 160 41.528 L 155.069 29.167 A 302.323 302.323 0 0 1 153.333 24.514 A 46.589 46.589 0 0 1 152.708 22.668 Q 152.188 21.024 151.667 19.028 Q 150.833 22.222 150.069 24.479 A 89.26 89.26 0 0 1 148.806 27.962 A 102.696 102.696 0 0 1 148.333 29.167 Z" vector-effect="non-scaling-stroke"/></g></svg>